<?xml version="1.0" encoding="UTF-8" standalone="no"?>
<svg width="230px" height="180px" viewBox="0 0 230 180" version="1.1" xmlns="http://www.w3.org/2000/svg" xmlns:xlink="http://www.w3.org/1999/xlink" xmlns:sketch="http://www.bohemiancoding.com/sketch/ns">
    <title>Untitled</title>
    <description>Created with Sketch (http://www.bohemiancoding.com/sketch)</description>
    <defs></defs>
    <g id="Page-1" stroke="none" stroke-width="1" fill="none" fill-rule="evenodd" sketch:type="MSPage">
        <g id="farenheit" sketch:type="MSLayerGroup" fill="#1D1D1B">
            <path d="M67.531,11.271 C63.927,7.875 59.74,5.187 54.99,3.209 C50.178,1.271 45.052,0.271 39.615,0.271 C34.156,0.271 29.031,1.271 24.24,3.209 C19.49,5.188 15.302,7.876 11.698,11.271 C8.115,14.687 5.302,18.687 3.239,23.312 C1.197,27.917 0.177,32.791 0.177,37.896 C0.177,43.021 1.197,47.896 3.239,52.5 C5.302,57.104 8.115,61.125 11.698,64.521 C15.302,67.937 19.49,70.646 24.24,72.583 C29.031,74.562 34.156,75.541 39.615,75.541 C45.053,75.541 50.177,74.562 54.99,72.583 C59.74,70.645 63.928,67.937 67.531,64.521 C71.115,61.125 73.927,57.104 75.947,52.5 C77.989,47.896 79.052,43.021 79.052,37.896 C79.052,32.792 77.989,27.917 75.947,23.312 C73.927,18.687 71.115,14.687 67.531,11.271 C67.531,11.271 71.115,14.687 67.531,11.271 L67.531,11.271 L67.531,11.271 Z M52.177,49.937 C48.739,53.354 44.552,55.063 39.615,55.063 C34.678,55.063 30.49,53.354 27.053,49.937 C23.657,46.521 21.928,42.521 21.928,37.896 C21.928,33.146 23.657,29.063 27.053,25.75 C30.491,22.417 34.678,20.771 39.615,20.771 C44.552,20.771 48.74,22.417 52.177,25.75 C55.551,29.062 57.281,33.146 57.281,37.896 C57.281,42.521 55.551,46.521 52.177,49.937 C52.177,49.937 55.551,46.521 52.177,49.937 L52.177,49.937 L52.177,49.937 Z M229.822,34.833 L229.822,3.333 L108.24,3.333 L108.24,179.729 L143.303,179.729 L143.303,107.791 L217.282,107.791 L217.282,76.312 L143.303,76.312 L143.303,34.833 L229.822,34.833 L229.822,34.833 L229.822,34.833 L229.822,34.833 Z M229.822,34.833" id="Shape" sketch:type="MSShapeGroup"></path>
        </g>
    </g>
</svg>