<?xml version="1.0" encoding="UTF-8" standalone="no"?>
<svg width="416px" height="288px" viewBox="0 0 416 288" version="1.1" xmlns="http://www.w3.org/2000/svg" xmlns:xlink="http://www.w3.org/1999/xlink" xmlns:sketch="http://www.bohemiancoding.com/sketch/ns">
    <title>Untitled</title>
    <description>Created with Sketch (http://www.bohemiancoding.com/sketch)</description>
    <defs></defs>
    <g id="Page-1" stroke="none" stroke-width="1" fill="none" fill-rule="evenodd" sketch:type="MSPage">
        <g id="wind" sketch:type="MSLayerGroup" fill="#1D1D1B">
            <path d="M368,64 C341.5,64 320,85.5 320,112 C320,117.646 321.167,122.958 322.938,128 L16,128 C7.167,128 0,135.167 0,144 C0,152.833 7.167,160 16,160 L368,160 C394.5,160 416,138.5 416,112 C416,85.5 394.5,64 368,64 L368,64 L368,64 L368,64 Z M16,96 L208,96 C234.5,96 256,74.5 256,48 C256,21.5 234.5,0 208,0 C181.5,0 160,21.5 160,48 C160,53.646 161.167,58.958 162.938,64 L16,64 C7.167,64 0,71.167 0,80 C0,88.833 7.167,96 16,96 C16,96 7.167,96 16,96 L16,96 L16,96 Z M272,192 C271.062,192 270.166,192.208 269.209,192.291 C268.584,192.25 268.063,192 267.438,192 L20.584,192 C9.209,192 0,199.167 0,208 C0,216.833 9.209,224 20.584,224 L226.938,224 C225.167,229.042 224,234.376 224,240 C224,266.5 245.5,288 272,288 C298.5,288 320,266.5 320,240 C320,213.5 298.5,192 272,192 L272,192 L272,192 L272,192 Z M272,192" id="Shape" sketch:type="MSShapeGroup"></path>
        </g>
    </g>
</svg>